<?xml version="1.0" encoding="utf-8"?>
<!-- Generator: Adobe Illustrator 27.7.0, SVG Export Plug-In . SVG Version: 6.00 Build 0)  -->
<svg version="1.1" id="圖層_1" xmlns="http://www.w3.org/2000/svg" xmlns:xlink="http://www.w3.org/1999/xlink" x="0px" y="0px"
	 viewBox="0 0 24 24" style="enable-background:new 0 0 24 24;" xml:space="preserve">
<path d="M12,0C5.4,0,0,5.4,0,12c0,6.6,5.4,12,12,12s12-5.4,12-12C24,5.4,18.6,0,12,0z M8.6,17.2H5.9v-8h2.7V17.2z M7.3,8.1L7.3,8.1
	c-0.9,0-1.5-0.6-1.5-1.4c0-0.8,0.6-1.4,1.5-1.4c0.9,0,1.5,0.6,1.5,1.4C8.8,7.5,8.2,8.1,7.3,8.1z M18.2,17.2l-2.7,0v-4.3
	c0-1.1-0.4-1.8-1.4-1.8c-0.7,0-1.2,0.5-1.4,1c-0.1,0.2-0.1,0.4-0.1,0.7v4.5h-2.7c0,0,0-7.3,0-8h2.7v1.1c0.4-0.5,1-1.3,2.4-1.3
	c1.8,0,3.1,1.1,3.1,3.6V17.2z"/>
</svg>
