<?xml version="1.0" encoding="UTF-8"?><svg id="_僦_1" xmlns="http://www.w3.org/2000/svg" viewBox="0 0 484.74 302.96"><defs><style>.cls-1{fill:#424647;}</style></defs><path class="cls-1" d="m481.79,186.62c-.43,0-.78-.08-1.14-.23-.35-.16-.67-.35-.94-.67-.59-.55-.87-1.3-.87-2.05,0-.39.04-.79.2-1.14.16-.35.39-.71.67-.98.78-.78,2.08-1.06,3.18-.63.35.16.71.4.98.63.28.31.47.63.63.98.16.35.23.75.23,1.14,0,.79-.31,1.49-.86,2.05-.55.59-1.3.9-2.08.9Zm-12.07,0c1.61,0,2.95-1.34,2.95-2.95s-1.34-2.95-2.95-2.95-2.95,1.3-2.95,2.95,1.34,2.95,2.95,2.95Zm-12.07,0c1.65,0,2.99-1.34,2.99-2.95s-1.34-2.95-2.99-2.95-2.95,1.3-2.95,2.95,1.34,2.95,2.95,2.95Zm-12.03,0c1.61,0,2.95-1.34,2.95-2.95s-1.34-2.95-2.95-2.95-2.95,1.3-2.95,2.95,1.3,2.95,2.95,2.95Zm-12.07,0c1.65,0,2.95-1.34,2.95-2.95s-1.3-2.95-2.95-2.95-2.91,1.3-2.91,2.95,1.3,2.95,2.91,2.95Zm-12.03,0c1.61,0,2.95-1.34,2.95-2.95s-1.34-2.95-2.95-2.95-2.95,1.3-2.95,2.95,1.34,2.95,2.95,2.95Zm-12.03,0c1.61,0,2.95-1.34,2.95-2.95s-1.34-2.95-2.95-2.95-2.99,1.3-2.99,2.95,1.34,2.95,2.99,2.95Zm-12.07,0c1.61,0,2.95-1.34,2.95-2.95s-1.34-2.95-2.95-2.95-2.95,1.3-2.95,2.95,1.34,2.95,2.95,2.95Zm-12.07,0c1.65,0,2.95-1.34,2.95-2.95s-1.3-2.95-2.95-2.95-2.95,1.3-2.95,2.95,1.34,2.95,2.95,2.95Zm-12.03,0c1.65,0,2.95-1.34,2.95-2.95s-1.3-2.95-2.95-2.95-2.95,1.3-2.95,2.95,1.34,2.95,2.95,2.95Zm-12.03,0c1.61,0,2.91-1.34,2.91-2.95s-1.3-2.95-2.91-2.95-2.95,1.3-2.95,2.95,1.3,2.95,2.95,2.95Zm-12.07,0c1.65,0,2.95-1.34,2.95-2.95s-1.3-2.95-2.95-2.95-2.95,1.3-2.95,2.95,1.34,2.95,2.95,2.95Zm-9.95-.9c.28-.28.47-.59.63-.94.16-.35.24-.71.24-1.1s-.08-.79-.24-1.14c-.16-.35-.35-.71-.63-.98-1.1-1.06-3.11-1.06-4.17,0-.55.59-.86,1.34-.86,2.12,0,.4.08.75.2,1.1.16.35.39.67.67.94.55.59,1.3.9,2.08.9s1.53-.31,2.08-.9Zm-2.08-11.16c1.61,0,2.95-1.34,2.95-2.95s-1.34-2.95-2.95-2.95-2.95,1.34-2.95,2.95,1.3,2.95,2.95,2.95Zm0-12.03c1.61,0,2.95-1.34,2.95-2.95s-1.34-2.95-2.95-2.95-2.95,1.3-2.95,2.95,1.3,2.95,2.95,2.95Zm0-12.07c1.61,0,2.95-1.29,2.95-2.95s-1.34-2.95-2.95-2.95-2.95,1.34-2.95,2.95,1.3,2.95,2.95,2.95Zm0-12.03c1.61,0,2.95-1.34,2.95-2.95s-1.34-2.95-2.95-2.95-2.95,1.3-2.95,2.95,1.3,2.95,2.95,2.95Zm0-12.07c1.61,0,2.95-1.3,2.95-2.95s-1.34-2.95-2.95-2.95-2.95,1.34-2.95,2.95,1.3,2.95,2.95,2.95Zm0-12.03c1.61,0,2.95-1.34,2.95-2.95s-1.34-2.95-2.95-2.95-2.95,1.34-2.95,2.95,1.3,2.95,2.95,2.95Zm0-12.03c1.61,0,2.95-1.34,2.95-2.95s-1.34-2.95-2.95-2.95-2.95,1.3-2.95,2.95,1.3,2.95,2.95,2.95Zm0-12.07c1.61,0,2.95-1.3,2.95-2.95s-1.34-2.95-2.95-2.95-2.95,1.34-2.95,2.95,1.3,2.95,2.95,2.95Zm0-12.03c1.61,0,2.95-1.34,2.95-2.95s-1.34-2.95-2.95-2.95-2.95,1.3-2.95,2.95,1.3,2.95,2.95,2.95Zm0-12.07c1.61,0,2.95-1.3,2.95-2.95s-1.34-2.95-2.95-2.95-2.95,1.34-2.95,2.95,1.3,2.95,2.95,2.95Zm0-12.03c1.61,0,2.95-1.34,2.95-2.95s-1.34-2.95-2.95-2.95-2.95,1.34-2.95,2.95,1.3,2.95,2.95,2.95Zm0-12.07c1.61,0,2.95-1.3,2.95-2.91s-1.34-2.95-2.95-2.95-2.95,1.3-2.95,2.95,1.3,2.91,2.95,2.91Zm0-12.03c1.61,0,2.95-1.3,2.95-2.95s-1.34-2.95-2.95-2.95-2.95,1.34-2.95,2.95,1.3,2.95,2.95,2.95Zm0-12.03c1.61,0,2.95-1.34,2.95-2.95s-1.34-2.95-2.95-2.95-2.95,1.3-2.95,2.95,1.3,2.95,2.95,2.95Zm1.1-12.27c.36-.16.71-.4.98-.67s.47-.59.63-.94c.16-.35.24-.75.24-1.14,0-.79-.31-1.53-.87-2.08-1.1-1.1-3.11-1.1-4.17,0-.55.55-.86,1.34-.86,2.08,0,.39.08.79.2,1.14.16.35.39.67.67.94.55.59,1.3.86,2.08.86.39,0,.74-.08,1.1-.2Zm131.42.2c1.61,0,2.95-1.3,2.95-2.95s-1.34-2.95-2.95-2.95-2.95,1.34-2.95,2.95,1.3,2.95,2.95,2.95Zm-12.03,0c1.61,0,2.95-1.3,2.95-2.95s-1.34-2.95-2.95-2.95-2.95,1.34-2.95,2.95,1.3,2.95,2.95,2.95Zm-12.07,0c1.61,0,2.95-1.3,2.95-2.95s-1.34-2.95-2.95-2.95-2.95,1.34-2.95,2.95,1.3,2.95,2.95,2.95Zm-12.07,0c1.65,0,2.99-1.3,2.99-2.95s-1.34-2.95-2.99-2.95-2.95,1.34-2.95,2.95,1.34,2.95,2.95,2.95Zm-12.03,0c1.61,0,2.95-1.3,2.95-2.95s-1.34-2.95-2.95-2.95-2.95,1.34-2.95,2.95,1.3,2.95,2.95,2.95Zm-12.07,0c1.65,0,2.95-1.3,2.95-2.95s-1.3-2.95-2.95-2.95-2.91,1.34-2.91,2.95,1.3,2.95,2.91,2.95Zm-12.03,0c1.61,0,2.95-1.3,2.95-2.95s-1.34-2.95-2.95-2.95-2.95,1.34-2.95,2.95,1.3,2.95,2.95,2.95Zm-12.03,0c1.61,0,2.95-1.3,2.95-2.95s-1.34-2.95-2.95-2.95-2.95,1.34-2.95,2.95,1.3,2.95,2.95,2.95Zm-12.07,0c1.61,0,2.95-1.3,2.95-2.95s-1.34-2.95-2.95-2.95-2.95,1.34-2.95,2.95,1.3,2.95,2.95,2.95Zm-12.07,0c1.65,0,2.99-1.3,2.99-2.95s-1.34-2.95-2.99-2.95-2.95,1.34-2.95,2.95,1.34,2.95,2.95,2.95Zm-12.03,0c1.61,0,2.95-1.3,2.95-2.95s-1.34-2.95-2.95-2.95-2.95,1.34-2.95,2.95,1.34,2.95,2.95,2.95Zm134.65-.86c.28-.28.47-.59.63-.94.16-.35.23-.75.23-1.1,0-.39-.08-.79-.23-1.14-.16-.35-.35-.71-.63-.98-.28-.27-.63-.47-.98-.63-1.1-.43-2.4-.16-3.18.63-.28.28-.51.63-.67.98-.16.35-.2.75-.2,1.14,0,.75.28,1.49.87,2.05.55.59,1.26.86,2.08.86s1.5-.28,2.08-.86Zm-2.08,169.52c1.61,0,2.95-1.34,2.95-2.95s-1.34-2.95-2.95-2.95-2.95,1.34-2.95,2.95,1.3,2.95,2.95,2.95Zm0-12.03c1.61,0,2.95-1.34,2.95-2.95s-1.34-2.95-2.95-2.95-2.95,1.3-2.95,2.95,1.3,2.95,2.95,2.95Zm0-12.07c1.61,0,2.95-1.29,2.95-2.95s-1.34-2.95-2.95-2.95-2.95,1.34-2.95,2.95,1.3,2.95,2.95,2.95Zm0-12.03c1.61,0,2.95-1.34,2.95-2.95s-1.34-2.95-2.95-2.95-2.95,1.3-2.95,2.95,1.3,2.95,2.95,2.95Zm0-12.07c1.61,0,2.95-1.3,2.95-2.95s-1.34-2.95-2.95-2.95-2.95,1.34-2.95,2.95,1.3,2.95,2.95,2.95Zm0-12.03c1.61,0,2.95-1.34,2.95-2.95s-1.34-2.95-2.95-2.95-2.95,1.34-2.95,2.95,1.3,2.95,2.95,2.95Zm0-12.03c1.61,0,2.95-1.34,2.95-2.95s-1.34-2.95-2.95-2.95-2.95,1.3-2.95,2.95,1.3,2.95,2.95,2.95Zm0-12.07c1.61,0,2.95-1.3,2.95-2.95s-1.34-2.95-2.95-2.95-2.95,1.34-2.95,2.95,1.3,2.95,2.95,2.95Zm0-12.03c1.61,0,2.95-1.34,2.95-2.95s-1.34-2.95-2.95-2.95-2.95,1.3-2.95,2.95,1.3,2.95,2.95,2.95Zm0-12.07c1.61,0,2.95-1.3,2.95-2.95s-1.34-2.95-2.95-2.95-2.95,1.34-2.95,2.95,1.3,2.95,2.95,2.95Zm0-12.03c1.61,0,2.95-1.34,2.95-2.95s-1.34-2.95-2.95-2.95-2.95,1.34-2.95,2.95,1.3,2.95,2.95,2.95Zm0-12.03c1.61,0,2.95-1.34,2.95-2.95s-1.34-2.95-2.95-2.95-2.95,1.3-2.95,2.95,1.3,2.95,2.95,2.95Zm0-12.07c1.61,0,2.95-1.3,2.95-2.95s-1.34-2.95-2.95-2.95-2.95,1.34-2.95,2.95,1.3,2.95,2.95,2.95Zm0-12.03c1.61,0,2.95-1.34,2.95-2.95s-1.34-2.95-2.95-2.95-2.95,1.3-2.95,2.95,1.3,2.95,2.95,2.95Z"/><path class="cls-1" d="m239.75,178.85c-.7.07-1.33.22-1.92.43,8.16-29.85,31.9-54.12,63.21-61.89-.11.36-.22.71-.23,1.1-.02.91-.03,1.82-.04,2.73-28.58,7.53-50.42,29.45-58.73,56.56-.61.56-1.5.99-2.28,1.07Zm183.09,20.54c.07,2.48.07,4.94-.04,7.39-.17-.21-.31-.4-.45-.57-.24.53-.54,1.03-.69,1.6-.04.15.38.47.58.71.16-.18.33-.37.5-.57-.11,1.99-.3,3.96-.53,5.92-.04.36-.09.73-.14,1.09-.22,1.7-.48,3.39-.78,5.06-.05.3-.1.6-.16.89-.76,4.01-1.76,7.96-2.99,11.81-.65,2.02-1.31,3.86-2.01,5.68-.06.16-.13.33-.19.49-2.25,5.72-5.01,11.21-8.23,16.41l-1.04-2.95c-.93.05-1.85.1-2.8.14-.15.42-.38.8-.3.91,1.27,1.8.16,2.72-1.93,3.44-.36.12-.68.73-1.02,1.12.43.07.84.21,1.28.2.63,0,1.46-.36,1.91-.15,1.11.54,1.81.28,2.35-.27-1.09,1.64-2.23,3.25-3.41,4.82-.22.3-.46.59-.69.89-.97,1.26-1.96,2.5-2.99,3.72-.28.33-.57.67-.85,1-1.16,1.33-2.34,2.64-3.56,3.91-.1.11-.21.22-.31.33-2.82,2.9-5.82,5.64-8.98,8.19-.16.13-.33.26-.49.39-1.51,1.2-3.05,2.37-4.63,3.49-.06.04-.12.09-.18.13-3.42,2.41-7,4.62-10.73,6.6-.09-.28-.17-.52-.27-.64-1.01-1.19-2.11-2.9-3.06-3.16-1.22-.33-2.43-.48-3.63-.57,34.02-16.19,55.84-51.96,53.29-90.74.51.08,1,.06,1.41-.5.08-.11.2-.17.31-.24.16,1.3.85,2.28,1.17,3.44.28,1.02.33,2.15.49,3.24,1.12-.73,2.28-1.41,3.36-2.22.16-.12.29-.29.43-.43Zm-6.17,1.05c.52-.36,1.04-.72,1.87-1.28-.6-.23-.85-.43-1.07-.39-.48.1-1.24-.21-1.26.74,0,.3.29.62.45.94Zm5.48,3.89c-.41.02-.82.03-1.23.04.09-.24.15-.41.1-.47-.4-.49-.89-.88-1.35-1.3,0,.48-.1,1,.03,1.44.04.15.16.28.29.42-.31.03-.62.04-.93.11-.15.03-.38,1.33-.71,2.58,1.38-.4,2.41-.56,3.34-1.04.28-.15.32-1.17.46-1.78Zm-121.58-100.57c2.12-.46,4.26-.89,6.43-1.22,54.93-8.35,106.4,29.57,114.75,84.5.26,1.74.48,3.48.65,5.21.17,1.72.3,3.45.38,5.16-.29-1-.59-2.01-.89-3.01-.8-.08-1.59-.16-2.39-.24.14-.36.28-.72.42-1.08-.6-.11-1.21-.22-1.81-.33-.23.78-.65,1.63-.71,2.34-.2-.12-.39-.25-.58-.25-.41-.01-.83.08-1.24.14-.18-2.29-.41-4.58-.76-6.89-2.52-16.58-9.28-31.48-18.98-43.8.29-.35.57-.89.57-.89-.39-.26-.97-.27-1.53-.31-17.93-22-45.42-35.38-75.02-34.64.28-1.04.46-1.44.36-1.53-.38-.35-.88-.58-1.33-.85-.13.29-.44.66-.35.86.2.46.53.89.98,1.53-3.79.11-7.61.42-11.45,1-7.92,1.2-15.46,3.38-22.52,6.37-.19-1.07-.4-2.23-.66-3.67,0-.08.01-.24-.02-.41-.07-.36-.26-.69-.4-1.04-.1.38-.34.77-.28,1.15.21,1.42.46,2.84.72,4.26-28.56,12.37-49.11,38.3-54.89,68.59-.55.15-1.04.59-1.54.91.29.35.57.69,1.06,1.28.05-.06.09-.1.14-.15-.43,2.58-.75,5.19-.97,7.82-.3-.64-.51-1.11-.72-1.57-.18.98-.42,1.91-.5,2.97-.02.27.45.95.69,1.44.12-.29.25-.59.38-.91-.02.33-.05.66-.07.98-2.05-.19-4.21.41-6.13-.51-.18-.08-.62.14-.87.28.35-7.12,1.46-14.08,3.24-20.81.17.16.44.38.67.61.42-.55.73-.95,1.03-1.35-.35-.19-.79-.62-1.02-.53-.16.07-.3.21-.43.36,1.73-6.27,4.05-12.32,6.92-18.08.04-.07.07-.15.11-.22.94-1.88,1.94-3.74,2.99-5.56,0,0,.8.56,1.33.93.63-.94,1.12-1.65,1.6-2.37-.53-.24-1.18-.8-1.57-.65.99-1.8,2.21-3.63,3.47-5.42.11-.16.23-.33.34-.49,2.52-3.54,5.28-6.91,8.23-10.09.27-.29.54-.58.82-.87,1.45-1.53,2.95-3.03,4.5-4.48.32.14.54.39.45,1.01-.04.28.27.62.42.93.24-.27.47-.56.74-.81.55-.5,0-1.88,1.41-1.69,0-.43.12-.89,0-1.27-.06-.2-.18-.39-.3-.58,3.4-2.94,7.02-5.66,10.81-8.13.15-.09.29-.19.44-.28,3.71-2.4,7.6-4.56,11.64-6.46.29-.13.58-.26.86-.39,1.75-.8,3.52-1.56,5.33-2.26.31-.12.62-.25.93-.37,2.02-.77,4.08-1.47,6.16-2.11.34-.1.68-.19,1.02-.29,1.74-.51,3.5-.98,5.28-1.4.56-.13,1.12-.26,1.68-.39Zm-74.25,84.71c-.47-.99-1.02-1.79-1.54-2.66.06.93.03,1.9.22,2.76.15.67.58,1.2,1.1,2.2.13-1.22.33-2.07.22-2.29Zm4.03-7.21c-.31-1.02-.5-1.66-.7-2.3-.06.69-.2,1.37-.15,2.08.05.64.32,1.32.49,1.98.12-.61.24-1.22.35-1.76Zm2.52-8.75c-.36-.29-.7-.79-1.08-.83-.65-.07-1.33.16-2,.26-.03-.1-.07-.2-.1-.31-1.04.48-2.07.96-3.11,1.44.9,1.93,2.32.43,3.49.53.65.06,1.34-.15,1.98-.36.32-.1.54-.48.81-.73Zm5.38-17.5c-.55-.42-1.09-.83-1.43-1.09-.31-.47-.42-.62-.52-.78-.51,2.12-1.03,4.23-1.5,6.4-.04.18.27,1.1.4,1.16.31.13.61-.06.92-.12-.49-2.9.94-2.78,1.31-4.36.14-.59.54-.82.83-1.21Zm3.89-8c-.74-.17-1.14-.38-1.25-.27-.52.49-.95,1.07-1.42,1.62.3.18.76.57.86.5.56-.45,1.02-1.01,1.81-1.84Zm71.08-31.77c3.93-.41,7.82-.52,11.68-.4.13.17.28.33.4.46.94.97,2.06,1.4,3.5.97.4-.29.8-.59,1.2-.88-.19-.08-.37-.19-.55-.29,16.22,1.36,31.45,7.22,44.18,16.51-1.25.59-2.5,1.21-3.75,1.81-16.08-11.17-36.06-16.77-56.82-14.49.02-.1.03-.2.07-.28.41-1.07.3-2.24.1-3.42Zm6.17,1.57c.53.59.89.99,1.26,1.4.02-.36.13-.76.02-1.06-.16-.46-.47-.84-.72-1.26-.15.25-.31.5-.57.92Zm81.05,124.09c-.2.09-.4.17-.6.26-.19-.8-.43-1.59-.55-2.39-.05-.34.14-.68.38-1.64.43,1.67.67,2.61.91,3.5,7.6-15.46,10.75-33.29,7.97-51.58-1.06-6.98-2.95-13.64-5.51-19.91-.67.98-1.34,1.97-2.01,2.95-.09-.06-.18-.12-.27-.18-.13.12-.26.26-.38.39.97,2.53,1.81,5.13,2.54,7.79.23,0,.45.04.58.17.37.37.56.99.87,1.57-.19.09-.51.39-.74.31-.07-.02-.13-.07-.2-.1.61,2.47,1.13,4.99,1.52,7.55.19,1.27.34,2.53.48,3.79.61-.09,1.14-.17,1.66-.25-.46.97-.82,2-1.44,2.87,2.4,32.25-14.05,62.23-40.67,78.12,0,.11-.01.25-.02.44-.03-.15-.05-.26-.08-.39-7.48,4.45-15.76,7.79-24.65,9.75-.73,1.14-1.38,1.98-2.03,2.83-.17-.51-.46-1.08-.49-1.53-.02-.28-.02-.53-.02-.77-.99.19-1.97.38-2.97.53-6.05.92-12.04,1.15-17.9.77.53.74,1.07,1.42,1.55,2.29.18.34.4.95.56,1.46,5.25.19,10.58-.08,15.96-.87-.15-.24-.34-.59-.49-.81.11-.29.2-.88.33-.83.94.37,1.99.38,2.84,1.18,28.19-5.05,50.95-23.25,62.87-47.28Zm-159.59-18.6c-.61-2.47-1.13-4.97-1.51-7.53-.87-5.73-1.13-11.42-.84-16.99-1.22-.12-2.26-.66-3.33-1.05.55-.46,1.11-.91,1.98-1.63.52.3,1,.57,1.49.84.23-3.06.62-6.09,1.18-9.07-.7-.34-1.35-.87-2.03-1.26.84-.55,1.64-1.19,2.54-1.62.27-.82.44-1.62.64-2.41-.1-.04-.2-.09-.29-.11-.6-.15-1.38-.54-1.79-.31-.65.37-1.26.82-1.85,1.28-.86,3.68-1.5,7.42-1.87,11.23.49-.09.99-.15,1.49-.2.08,0,.21.3.31.47-.1.37-.15.89-.31,1.07-.51.57-1.03,1.12-1.61,1.43-.19,1.43-.26,2.95-.28,4.48.09.02.19.04.28.07.54.14,1.06.33,1.59.5-.15.49-.16.69-.23.72-.55.23-1.1.46-1.65.69.04,4.1.34,8.25.98,12.42.24,1.6.53,3.18.86,4.74,1.37.58,2.69,1.26,4.01,1.94.11.05.18.18.25.3Zm75.84,63.46c-.48-.03-.95-.07-1.43-.11-.03.13-.02.26-.07.39.41-.45,1.98,3.99,1.5-.28Zm-15.44-168.42c.19.33.38.66.54.94.16.91.21,1.78.22,2.62,2.47-.61,4.98-1.13,7.54-1.52.22-.03.44-.05.65-.08-.19-.45-.38-.9-.55-1.37-.07-.19.7-1.24.87-1.11.85.67,1.33.64,1.64-.54.08-.32.14-.63.15-.92-1.1.12-2.21.25-3.31.42-2.63.4-5.22.93-7.76,1.56Zm70.73,17.59c3.94,2.92,7.62,6.19,11,9.76.27-.32,2.42.14,2.38.5-.19,1.8.26,2.53,2.21,2.17.78-.14,1.41-.41,1.99-.75-4.23-5.12-9.03-9.71-14.28-13.73-1.09.81-2.19,1.48-3.29,2.05Zm-148.57,87.49c-.34-1.68-.64-3.37-.9-5.08-.25-1.67-.46-3.33-.63-4.99-.14-1.41-.24-2.82-.32-4.23-.01-.22-.04-.45-.05-.67-.17-3.26-.18-6.5-.04-9.71.58.97,2.02,1.61,1.11,3.17.64-.32,1.39-.53,1.9-1,1.28-1.19,2.51-1.21,3.94-.31-.15,5.5.15,11.07,1.01,16.7.14.89.31,1.77.47,2.65-.33.2-.66.4-1.02.62.42.26.84.57,1.27.79,8.17,41.51,43.06,71.7,83.87,75.24.68,1.66,1.71,3.08,2.41,2.95.37-.07.65-.56,1-.87-.28-.63-.49-1.27-.76-1.71-.04-.06-.07-.12-.11-.18,5.12.3,10.33.19,15.58-.38.15.43.34.91.52,1.48.18-.71.35-1.21.47-1.61,1.03-.12,2.06-.23,3.1-.39.99-.15,1.96-.34,2.93-.52,1.65,2.59,3.48,3.1,5.19,4.96.17.19.43-.23.72-.42-.37-.79-.61-1.59-.87-1.83-.95-.83-1.84-1.95-2.7-3.16,5.97-1.26,11.71-3.06,17.15-5.37.26.38.53.73.77.83,2.54,1.07,5.08,2.06,7.62,3.03-4.03,2.01-8.23,3.75-12.57,5.22-.09-.27-.19-.56-.3-.91-.02.41-.04.74-.06,1.03-.54.18-1.08.38-1.63.55-.05-.1-.1-.21-.15-.31,0,.12,0,.24.01.36-.24.07-.48.14-.72.21-1.21.37-2.44.72-3.67,1.05-.5.13-1.01.26-1.52.38-1.04.26-2.08.5-3.14.72-.49.1-.97.21-1.46.31-1.5.3-3.01.58-4.54.81-.13-.24-.26-.48-.38-.71-.22-.41-.52-.63-.78-.94-.01.54-.03,1.08-.03,1.31.01.06.06.24.12.47-23.86,3.37-47.03-1.95-66.23-13.59-1.37-.83-2.71-1.69-4.04-2.58-1.42-.96-2.68-1.85-3.91-2.77-.09-.07-.18-.14-.27-.21-1.19-.89-2.36-1.8-3.51-2.74-.13-.11-.25-.22-.38-.33-1.1-.91-2.19-1.84-3.26-2.8-.17-.15-.33-.31-.49-.46-1.02-.93-2.02-1.87-3-2.84-.2-.2-.39-.41-.59-.61-.93-.94-1.85-1.88-2.75-2.86-.23-.25-.44-.51-.67-.76-.85-.94-1.69-1.89-2.51-2.87-.26-.31-.5-.64-.76-.95-.76-.94-1.52-1.87-2.25-2.84-.29-.38-.55-.77-.83-1.15-.67-.92-1.35-1.84-2-2.78-.31-.45-.59-.92-.89-1.37-.59-.9-1.19-1.8-1.75-2.72-.32-.52-.61-1.05-.91-1.57-.52-.88-1.05-1.76-1.54-2.66-.32-.58-.61-1.18-.92-1.77-.45-.86-.91-1.72-1.34-2.6-.31-.64-.59-1.3-.89-1.95-.39-.85-.79-1.69-1.16-2.56-.3-.71-.57-1.45-.86-2.17-.33-.82-.67-1.63-.97-2.46-.3-.81-.56-1.64-.84-2.46-.26-.76-.53-1.51-.77-2.28-.28-.9-.52-1.82-.78-2.74-.2-.71-.42-1.41-.6-2.13-.26-1.02-.48-2.07-.72-3.1-.14-.63-.3-1.24-.43-1.88Zm1.69-13.78c.15.67.58,1.2,1.1,2.2.13-1.22.32-2.07.22-2.29-.47-.99-1.02-1.79-1.54-2.66.06.93.03,1.9.22,2.76Zm12,13.64c1,.26,1.99.54,2.98.8.28.07.6-.06.91-.14,8.84,34.72,38.89,59.61,73.8,62.68.13.14.27.29.4.43-.21,1.07-.71,2.58-.61,3.21-36.99-3.21-68.76-29.91-77.49-66.98Zm32.1,45.03c-.65-.08-1.32-.29-1.95-.21-.45.05-.85.48-1.27.74.53.55,1.03,1.15,1.63,1.59.1.07.67-.53,1.02-.82.19-.44.38-.87.56-1.31Zm45.09-14.55c-.06-.41.29-.82.99-2.51-2.99-.43-5.91-1.15-8.73-2.11.58.91,1.19,1.76,1.67,2.85.24.56.47,1.14.72,1.7,1.8.47,3.63.86,5.49,1.14-.05-.37-.09-.73-.14-1.06Zm6.04-102.01c.08.32-.07.7-.18,1.52-.41-.85-.69-1.21-.72-1.56-.02-.22.07-.44.17-.66-.09,0-.18.02-.26.03-.1.22-.21.42-.37.51-.77.47-1.67.61-3.01,1.06.21-.46.38-.89.53-1.28-.73.08-1.46.11-2.19.22-.24.04-.46.1-.69.14.02.34-.11.64-.53.87-.88.47-1.82.87-2.56,1.61-.31.3-.32,1.16-.42,1.96,1.55-.4,3.14-.73,4.76-.97,1.89-.29,3.76-.43,5.62-.5.21-.51.43-1.06.7-1.71.61.02,1.28-.04,1.88-.04-.02-.47-.04-.92-.05-1.36.18.38.44.75.53,1.15.02.08.02.17.03.25.3.04.58.11.78.26.24.18.11.79-.07,1.45,2.2.1,4.35.37,6.48.75.07,0,.14,0,.21-.01,12.1,2.3,22.89,9.08,30.17,18.85.37-.13.73-.26,1.09-.39-.16.44-.27.92-.41,1.39,1.52,2.15,2.91,4.41,4.07,6.82.58-.25,1.15-.51,1.57-.42.9.2,1.92.65,2.46.58-8.52-19.42-28.28-32.15-49.97-31.21.17.22.33.45.39.7Zm-48.84,38.87c.43.03.86.1,1.29.15-.43.26-.87.52-1.34.8-.5,1.54-.8,3.12-1.01,4.72.25.13.54.29.94.47-.45.21-.77.39-1.04.54-.47,4.12-.47,8.35.09,12.64.42,1.46.83,2.93,1.54,4.24.39.72,1.64.95,2.67,1.49-.67,1.27-1.02,3.04-1.97,3.48.73,2.77,1.81,5.39,3.09,7.89,1.22-.3,2.44-.59,3.67-.88-2.57-4.77-4.42-10.01-5.28-15.67-3.25-21.38,8.04-41.66,26.45-50.79.47-1.51,1.06-2.95,1.34-4.57-.86.36-1.74.69-2.57,1.1-.15.3-.29.61-.44.91-.11-.16-.24-.32-.35-.48-.77.39-1.52.82-2.27,1.25-.02.13-.04.23-.06.38-.06-.09-.12-.17-.18-.25-12.24,7.09-21.15,18.89-24.57,32.59Zm31.97-34.27c.15.63.35,1.24.55,1.86,1.84-.74,3.72-1.4,5.67-1.92-.73-.4-1.52-.69-1.85-1.36-.54-1.14.21-1.68.93-1.91.34-.11.64-.27.92-.47-2.32.57-4.56,1.3-6.73,2.16.17.55.34,1.1.51,1.65Zm67.55,34.74c.56-.11,1.19-.16,1.82-.22.36,1.47.68,2.96.92,4.49,2.43,15.96-2.69,31.36-12.67,42.57-.05-.65-.1-1.32-.15-1.97-.25-.37-.42-.78-.6-.83-.18-.05-.51.21-.51.39.03,1.2.06,2.4.09,3.6-7.16,7.54-16.6,12.99-27.44,15.18-.41-.72-1.19-1.5-1.71-2.16-.09-.11-.47.45-.43.7.09.57.16,1.23.26,1.84-.21.03-.4.09-.61.12-4.75.72-9.43.72-13.98.18-.04-.27-.09-.53-.12-.85-.09-.87-.31-1.79-.52-2.87,4.56.65,9.29.67,14.07-.06,26.45-4.02,44.73-28.82,40.71-55.3-.04-.26-.11-.5-.15-.75,1.88-.68,1.79-1.34,1.03-4.06Zm-46.33,62.14c-.65.09-1.4.2-2.14.31.04.28,0,.78.13.79.7.07,1.44.02,2.16.01-.04-.27-.08-.55-.16-1.11Zm-33.35-7.92c-.12-.64-.23-1.28-.36-1.92.52.94,1.04,1.88,1.59,2.73,1.16.8,2.35,1.57,3.57,2.28-.12-1.41-.25-2.83-.32-4.21,0-.08.05-.14.08-.21-6.35-4.09-11.74-9.63-15.62-16.25-3.41.7-3.34,1.61-.84,5.3.27.4.53.8.8,1.2,3.11,4.25,6.87,7.99,11.11,11.09Zm11.09,2.21c-.29.47-.59.94-.88,1.4.57-.31,1.19-.57,1.77-.87.06.12.1.22.17.35.41.74.83,2.03.87,2.9.02.32-.13.59-.33.83-2.04-.76-4.02-1.68-5.94-2.68-.13-1.39-.37-2.85-.3-4.06,0-.08,0-.14.01-.21,1.49.87,3.04,1.64,4.62,2.35Zm-1.33,2.19c0-.38-.36-1.22-.57-1.38-.2-.15-.43.32-1.33,1.15.75.59,1.09,1.03,1.37,1.04.23,0,.54-.41.53-.8Zm92.83-89.63c.4.05.74.1,1.05.14-.16.29-.3.6-.45.9,1.96,3.36,3.69,6.87,5.18,10.53,1-.76,1.69-2.36,2.95-2.43-3.13-7.41-7.25-14.24-12.15-20.38-.97.78-1.97,1.5-3.05,2.02,2.35,2.92,4.51,6,6.46,9.23Z"/><path class="cls-1" d="m108.92,140.1c-.67.11-1.31.23-1.99.33-1.69.26-3.33.48-4.91.66-1.66.19-3.18.34-4.65.46-.42-1.41-2.71-3.45-4.27-3.47-.32,0-1.51.34-3.02.83-.17-.2-.36-.39-.63-.52-.56-.28-1.15-.53-1.73-.8,2.3,0,4.73-.07,7.3-.24-.11.19-.23.38-.38.63,1.53.21,2.98.46,4.48.57.25.02.73-.57,1.11-.88-.49-.21-.98-.41-1.47-.62,2.07-.2,4.23-.46,6.5-.79,1.23,1.28,2.43,2.58,3.68,3.85Zm44.55-21.25c.56-.08,1.18-.13,1.57-.34.64-.35,1.04-.86,1.55-1.3-.78.02-1.93-.14-2.25.1-.54.4-.64,1-.87,1.54Zm38.81,11.36c-1.61.45-3.14.93-4.62,1.42-.14.05-.27.09-.41.14-1.43.48-2.81.98-4.14,1.49.36.18.69.37,1.12.53,1.51.54,2.03,1.23-.38,1.96-.1.03-.18.06-.28.09-.11.08-.22.12-.22.12-1.72.56-1.68,1.03.52,1.24.3.03.74.02,1.11.02,1.25-.48,2.55-.95,3.9-1.4-.08-.01-.16-.03-.24-.04.43-.39.75-.95,1.32-1.14.57-.19,1.38-.07,2.92-.07,1-.29,2.03-.56,3.09-.83.32-.08,2.77-.68,3.71-.88.66-.15,3.46-.72,4.2-.86,1.52-.28,3.08-.55,4.72-.8,1.68-.26,3.29-.47,4.86-.65.49-.06,3.56-.37,4.58-.46.52-.04,3.43-.23,4.35-.27.49-.02.96-.04,1.44-.05.93-.03,1.84-.04,2.73-.05.4,0,.81,0,1.21,0,.99,0,1.96.04,2.91.08.26.01.53.02.78.03,3.76.19,7.21.6,10.44,1.16-.23-1.28-1.21-2.45-2.31-2.72,2.44-.35,4.73-.61,6.95-.82-3.63-.79-7.52-1.41-11.81-1.77-.25-.02-.51-.04-.77-.06-1.17-.09-2.38-.15-3.61-.2-.26,0-.52-.02-.78-.03-1.49-.04-3.02-.06-4.61-.03-.08,0-.17,0-.25,0-1.44.03-2.94.09-4.48.19-.47.03-.96.07-1.44.1-1.23.09-2.5.2-3.79.33-.52.05-1.03.1-1.56.16-1.78.2-3.61.43-5.52.72-1.22.18-2.38.39-3.54.59-1.02.18-2.03.37-3.01.57.77.87.32,2.07.43,3.11.01.1-1.58.65-1.98.53-1.5-.43-3.08-.88-4.24-1.55-1.2.18-2.33.21-3.33.07Zm-26.16,16.99c.25-.17.51-.34.76-.5,1.85-1.21,3.73-2.4,5.72-3.55-.26-.04-.54-.08-.79-.1.29-.37.47-.81.91-1.1.77-.51,1.67-.97,2.58-1.39,2.15-1.01,2.5-1.7.23-2.58-.46-.18-.78-.47-1.08-.79-.85.44-1.67.9-2.48,1.35-.62.35-1.24.69-1.84,1.05-1.52.89-2.99,1.79-4.41,2.7-.34.22-.7.44-1.03.66-.99.65-1.97,1.3-2.93,1.95,1.08.58,2.14,1.14,3.09,1.65-.54,1.06-.76,1.51-.99,1.96-1.18-.88-2.38-1.76-3.49-2.67-.32.22-.64.43-.96.65-.3.17-.59.38-.88.59-1.12.77-3.39,2.31-3.39,2.31.23-.03.44-.04.5,0,1.1.87,2.16,1.78,3.26,2.72.42-.28,5.51-3.76,7.23-4.9Zm101.92-9.13c.04-.31-.25-.62-.36-.86-.59.08-1.13.19-1.61.32.65.19,1.97.55,1.97.55Zm-69.11-8.8c-.24-.17-.44-.38-.7-.54-1.18.26-2.33.54-3.44.82.12.12.23.25.38.36.13.09.29.16.44.25.4-.06.8-.11,1.21-.19.74-.15,1.41-.46,2.11-.69Zm60.49,34.74c.56-.08,1.18-.13,1.57-.34.64-.35,1.05-.86,1.55-1.3-.78.02-1.93-.14-2.25.1-.54.4-.64,1-.87,1.54Zm-106.18-45.09c-.58-.15-1.64-.09-2.37-.18,0,0-2.08,1.39-2.17,1.45-3.89,2.57-7.95,5.04-12.64,7.28-.87.42-1.67.78-2.48,1.14-6.8,2.98-14.89,5.47-25.57,7.21.48.49.96.98,1.45,1.46.75.74,1.71,1.43,2.78,2.24,1.79-.34,3.5-.7,5.16-1.09.2-.05.4-.09.6-.14,1.6-.38,3.15-.77,4.63-1.19,3.23-.91,6.11-1.87,8.78-2.9.12-.05.23-.09.35-.14,1.23-.48,2.42-.97,3.57-1.47.08-.03.16-.07.23-.1,2.48-1.09,4.78-2.24,6.94-3.43,1.13-.62,2.18-1.22,3.2-1.83-.79-.4-1.55-.82-2.24-1.28-.17-.11,1.02-1,1.58-1.53,1.01.43,2.05.87,3.1,1.32,1.69-1.06,3.33-2.14,4.92-3.22.26-1.18.11-2.41.2-3.61Zm124.24,21.36s-.41-.19-.56-.26c-.26,0-.5.02-.77.02.43.09.89.16,1.33.25Zm6.59.96c.43-.67-1.39-.85-2.42-1.05,1.14.26,1.85.61,2.23,1.03.06,0,.12.01.19.02Zm-7.15-1.23c1.78-.05,3.4-.2,4.35.09.1.03.24.06.38.08-.24-.05-.43-.12-.71-.17-1.56-.26-2.78-1.36-3.64-2.28-.66-.7-.69-1.4-.29-1.98-1.87-.37-3.69-.8-5.46-1.25-1.22,2.87,2.36,4.13,5.37,5.5Zm-25.02-40.35c-1.49-.44-3-.87-4.55-1.29-.07-.02-.15-.04-.22-.06-1.56-.41-3.15-.8-4.79-1.17-1.85-.4-3.57-.74-5.36-1.02.09.39.18.88.37,1.7,0,.07-.08.96-.29,1.86-.01.06-1.57.29-1.7.15-.7-.76-1.31-1.58-1.67-2.44-.19-.44.17-1.02.35-1.54-1.28-.31-2.61-.45-3.98-.56-.12,0-.24-.02-.35-.03-1.37-.11-2.77-.19-4.22-.23-.51,1.01-.25,2.53-.53,3.71-.05.22-.12.4-.19.6,1.48.04,2.9.12,4.28.22.13,0,.26.02.38.03,2.81.22,5.45.57,7.96,1.01,1.29.23,2.46.46,3.6.71.13.03.25.05.38.08,2.35.52,4.61,1.11,6.83,1.74.17.05,6.04,1.81,7.05,2.12,13.52,4.18,27.52,8.48,53.19,4.58,1.2-.18,2.03-1.31,1.85-2.48-.18-1.2-1.31-2.03-2.51-1.85-24.69,3.75-37.57-.2-51.23-4.43-1.46-.45-4.56-1.39-4.64-1.41Zm5.35,62.5c-2.12-1.39-4.71-2.59-6.25-4.22-1.12-.31-2.15-.51-3.2-.69-1.15-.21-2.15-.36-3.16-.51-.14-.02-.28-.04-.42-.06-.98-.14-1.99-.25-3.01-.36-.16-.02-.31-.04-.48-.05-1.18-.12-2.4-.21-3.65-.29.2,1.58-2.6,2.64-4.38,3.28-.78.28-1.55.59-2.33.9,1.37-.02,2.7,0,3.99.04.19,0,.37.01.55.02,1.09.04,2.16.1,3.21.17.25.02.5.04.74.06.99.08,1.95.18,2.9.29.23.03.46.05.69.08,1.12.14,2.24.3,3.32.48,0,0,.17.03.24.04.64.09,1.29.22,2.13.38,2.77.52,5.4,1.19,7.97,1.9-.15-.24.09-.66,1.14-1.45Zm39.9,8.84c-.18.39-.39.78-.52,1.17.75.02,1.54,0,2.32,0-.42-.53-1.2-.82-1.8-1.18Zm-100.43-7.12c1.05-.49,4.85-1.21,1.38-2.65-.22-.09-.2-.43-.04-.87-.55.15-1.88.51-2,.54.47.33.89.64,1.29.96.14.12-.19.47-.3.71-.92-.37-1.85-.74-2.75-1.13-2.06.64-4.02,1.31-5.87,2.02-1.95.75-3.7,1.47-5.35,2.23-1.71.77-3.31,1.58-4.87,2.4-.5.26-.98.53-1.46.8-1.06.58-2.09,1.17-3.09,1.77-.49.3-.99.59-1.47.89-1.05.65-3.75,2.39-4.07,2.6-.07.41-.22.82-.47,1.17-.63.88-1.53,1.81-3.62,1.6-.29.17-.58.38-.87.58-.84.57-8.03,5.35-8.08,5.38-4.57,2.88-9.52,5.58-15.54,7.93.33.11.58.51.73,1.41.17,1.01.13,1.96.49,2.78,1.48-.57,2.9-1.16,4.26-1.76-.4.05-1.11-.13-1.25-.34-.15-.22.31-.63.63-1.16.7.27,1.41.37,1.48.61.05.18-.17.5-.44.71,1.16-.53,2.28-1.06,3.37-1.61.19-.1.37-.19.56-.29.86-.44,1.71-.89,2.53-1.34.25-.14.5-.28.75-.42.79-.44,2.71-1.57,2.9-1.68.95-.57,1.87-1.15,2.78-1.73.07-.13.17-.27.22-.38.09.02.18.04.27.06,2.04-1.32,4.02-2.66,5.96-3.99.29-.21.56-.38.85-.58,5.29-3.62,10.52-7.14,16.8-10.28.76-.38,1.49-.78,2.29-1.15.89-.41,1.8-.8,2.74-1.19,2.78-1.16,5.83-2.24,9.18-3.24-1.04-.17-2.13-.32.09-1.37Zm-66.51,30.35c2-.94,4.73-1.16,6.6-2.16.36-.19.68-.39.99-.59-1.41.52-2.89,1.01-4.43,1.49-.2.06-.4.13-.61.19-1.59.48-3.23.94-4.97,1.38-1.75.43-3.42.8-5.15,1.15-.44.09-.88.18-1.34.27-1.85.36-3.75.7-5.77,1.01-24.69,3.75-37.57-.2-51.23-4.43-.89-.28-7.63-2.28-8.24-2.45-.37-.1-3.68-.95-4.07-1.05-.61-.15-2.64-.6-3.04-.68-.65-.14-2.75-.53-3.15-.6-.74-.13-1.51-.24-2.28-.36-.34-.05-.66-.1-1-.15-1.11-.15-2.26-.29-3.42-.4,0,0,.2.84.3,1.26.17-.01.35-.02.52-.03-.08,1.07-.14,2.13-.22,3.2,2.15.24,4.21.54,6.19.91,1.98.36,3.89.78,5.74,1.24,1.07-.26,2.21-.49,3.45-.64,1.15.14,4.58-1.13,1.93,1.72-.09.1-.09.22-.08.36l4.76,1.42c.89-.73,2.85-.93,5.46-1.68.52,1.09,1.58,2.06,1.24,2.92-.08.21-.24.45-.42.69,0,0,4.02,1.14,4.25,1.2,2.47.66,5.03,1.27,7.73,1.78.2.04.41.08.61.11,1.36.25,2.76.48,4.2.68-.07-.55.22-1.07,1.99-1.44.98-.2,2.17.1,3.26.18-.42.55-.84,1.1-1.31,1.71,1.61.15,3.3.25,5.03.31.34.01.68.03,1.03.04.62.02,2.97.03,3.51.03.6,0,3.08-.07,3.72-.1.58-.03,3.24-.19,3.99-.24.56-.04,1.11-.08,1.69-.14.88-.08,3.64-.38,4.14-.44,1.42-.17,2.87-.37,4.37-.6,1.44-.22,2.82-.45,4.18-.7.81-.15,3.33-.65,3.79-.75,1.03-.22,3.3-.74,3.45-.78,1.1-.26,3.21-.82,3.21-.82-.34-.37-.73-.69-1.2-.95-2.5-1.35-.97-2.34.58-3.06Zm163.07-22.96c-1.88-1.35-3.8-2.75-6.23-3.7-2.05-.8-4.98.69-3.93,2.02.36.45.63.94.88,1.44,1.55.25,3.15.46,4.82.64,1.74.18,3.47.32,5.28.4-.23-.29-.48-.56-.81-.8Zm-108.14-36.68c-1.26-.31-2.02-.68-2.84-.64-.53.02-1.14.64-1.72.99.89.35,1.75.74,2.72,1.01.09-.03.19-.06.29-.1.31-.23.91-.75,1.55-1.26ZM7.12,161.83c1.38-.21,2.72-.39,4.03-.55.51-.06,3-.34,3.73-.41.62-.06,4.79-.37,5.44-.4-.94-.4-1.88-.8-2.78-1.23-.08-.04.29-.41.65-.9,1.21.65,2.33,1.23,3.38,1.85.04.03-.02.12-.11.23,10.37-.4,18.37.79,25.64,2.6,2.58.64,4.91,1.3,7.23,2,.13.02.24.04.38.07,1.18.4,2.43.78,3.68,1.17,2.84.88,5.7,1.76,8.68,2.57,1.26-.8,2.41-1.53,3.55-2.25,1.28.86,2.97,1.61,3.68,2.62.22.31-.08.78-.51,1.26,1.53.32,3.11.6,4.73.86.08-.14.2-.31.29-.49.43.26.81.47,1.15.71,4.63.64,9.74.96,15.53.81,1.19-.03,2.45-.08,3.71-.15.06,0,2.58-.17,3.82-.28.39-.04,3.1-.31,4.09-.43,1.44-.18,2.92-.37,4.44-.6,1.49-.23,2.92-.47,4.32-.72.47-.09,3.2-.62,4.07-.81.52-.11,3.08-.7,3.83-.89.52-.13,2.93-.77,3.61-.96.5-.14,2.77-.82,3.41-1.03.47-.15.94-.3,1.39-.45.62-.21,2.7-.95,3.12-1.11.61-.23,2.56-1,2.94-1.16.67-.28,1.32-.57,1.97-.85.27-.12.54-.23.8-.35.87-.4,1.72-.8,2.55-1.21.4-.2,2.05-1.05,2.48-1.28.43-.23,2-1.1,2.36-1.3.44-.25,3.13-1.85,3.57-2.12.28-.17,4.4-2.84,4.4-2.84-.91-.24-1.73-.53-2.13-.97-.63-.7-.24-1.81-.04-2.82-5.76,3.85-11.79,7.5-19.7,10.55.13.1.23.17.37.27-.46.6-.84,1.09-1.21,1.58-.51-.32-1.26-.6-1.61-.95-2.87,1.01-6,1.95-9.43,2.79-.19.05-.4.09-.6.14-1.4.34-2.86.66-4.37.96-.42.09-.84.17-1.27.25-1.77.34-3.59.66-5.51.96-1.85.28-3.62.51-5.35.7-.45.05-.89.09-1.33.14-1.36.14-2.68.26-3.96.35-.33.02-.67.05-1,.07-3.32.21-6.41.26-9.3.18-.08.56-.66.99-1.4,1.54-.05.06-.1.12-.15.18,1.31.26,2.64.52,3.9.84.21.05.09.62-.08.93-.12.22-.57.41-.91.63-.53-.13-1.15-.21-1.59-.41-1.2-.56-2.34-1.16-3.46-1.78-.73-.57-1.3-.88-1.12-1.07.12-.42.46-.75.88-1.06-1.59-.12-3.14-.26-4.63-.46.08.1.2.2.21.31.2,1.6-2.07,1.57-4.04,1.72-.15.2-.32.43-.46.62-.62-.16-1.54-.21-1.78-.51-.06-.08-.07-.18-.04-.28-.25-.17-.44-.36-.36-.47.52-.68,1.2-1.38,1.93-2.1-4.6-.85-8.81-1.99-12.96-3.24-.08-.02-2.89-.88-4.22-1.29-6.67-2.05-13.46-4.13-21.7-5.26-1.4.94-3.25,1.74-5.35,2.06-3.38.81-5.11.13-5.85-2.1-.08-.25-.19-.52-.28-.78-1.37-.02-2.79,0-4.24.04-.22,0-.44.01-.66.02-1.24.04-2.51.11-3.81.2-.36.02-.72.05-1.09.08-1.22.09-2.48.21-3.75.35-.43.05-.84.08-1.27.13-1.68.19-3.4.42-5.19.69-1.17.18-2,1.31-1.82,2.47.18,1.2,1.31,2.03,2.48,1.85Zm-4.63-30.44c1.56-.24,3.08-.44,4.55-.62.34-.04.67-.07,1-.11,1.12-.13,2.23-.25,3.29-.34.34-.03.66-.04.99-.07,1.04-.08,2.07-.16,3.07-.21.28-.01.54-.02.82-.03,1.03-.05,2.05-.09,3.03-.1.2,0,.38,0,.58,0,1.04-.01,2.07,0,3.07.01.13,0,.25.01.37.01,1.05.03,2.08.07,3.08.13.08,0,.15.01.23.02,1.04.07,2.07.15,3.06.25,1.13.11,2.14.24,3.14.37.12-.1.25-.19.34-.28.21.14.43.28.64.43,7.35,1.1,13.6,3.02,19.99,4.99,6.76,2.09,13.62,4.21,22,5.32.28-.21.69-.49,1.11-.81.25.4.47.72.65,1.01,1.5.17,3.03.31,4.64.41,1.44-.59,3.56-1.38,5.58-2.08-1.6-.23-3.18-.51-4.67-.89-.71-.18-1.76-.79-1.61-1,.11-.14.3-.28.44-.41-1.35-.09-2.65-.21-3.92-.35-.14-.02-.28-.03-.42-.05-1.27-.15-2.51-.32-3.71-.51.47.45.65,1.08.53,1.9-.06.42-.62,1.05-1.19,1.24-.65.22-1.86.25-2.33.01-1.94-.98-2.85-2.25-1.25-3.96-.11-.02-.94-.2-1.24-.27-.15-.02-.3-.03-.44-.07-.14-.04-.27-.09-.41-.13-2.12-.55-4.19-1.06-6.23-1.65-.09-.02-6.47-1.95-6.56-1.98-1.1,0-2.2-.01-3.2-.18-1.1-.19-6.09.26-2.54-1.55-2.71-.79-5.51-1.53-8.47-2.17-.34-.07-.67-.15-1.02-.22-.49-.1-2.33-.45-2.76-.52-.47-.08-2.4-.39-2.89-.46-.47-.07-.93-.13-1.41-.19-.55-.07-2.55-.29-3.01-.33-.74-.07-1.49-.12-2.25-.17-.3-.02-.59-.05-.89-.07-1.05-.06-2.13-.1-3.24-.13-.39,0-2.71-.03-3.5-.02-.47,0-2.93.07-3.7.11-.5.02-3.14.18-3.96.25-.51.04-1.01.08-1.53.13-.91.08-3.7.38-4.16.44-1.42.17-2.87.37-4.37.6-1.17.18-2,1.27-1.82,2.47.18,1.2,1.31,2,2.47,1.82Zm9.25,60.85c1.39-.21,2.74-.39,4.05-.55.44-.06,3.03-.34,3.87-.42.49-.05.98-.09,1.45-.13.77-.06,3.21-.23,3.66-.25,1.04-.05,2.06-.09,3.06-.11.63-.01,2.69-.02,3.11-.01.66,0,2.57.06,2.89.08.68.03,2.03.1,2.03.1-.35-1.38-.74-2.76-1.07-4.15-.02-.07,0-.16-.02-.24-1.6-.08-3.26-.11-4.98-.11-.15,0-.29,0-.43,0-1.74,0-3.55.06-5.43.16-.09,0-.19.01-.28.02-1.66.09-3.39.24-5.17.42-.46.05-.93.09-1.4.14-1.93.21-3.91.46-5.99.77-1.17.18-2,1.27-1.82,2.47.18,1.2,1.31,2,2.47,1.82Zm185.31-94.65c2-.4,4.08-.77,6.27-1.11,1.66-.25,3.27-.47,4.83-.65,1.62-.19,3.11-.34,4.57-.46.75.56,1.88,1.03,3.56,1.37.67.14,1.22.65,1.44,1.1.29.59,3.99.57,2.77,1.46-1.06.02-2.15.06-3.26.12-.17,0-.33,0-.5.02-3.86.21-8.05.63-12.65,1.33-.32-.25-.65-.5-.94-.76-.22-.19-.29-.45-.46-.67-.37-.48-.76-.96-1.15-1.44-.54.72-1.07,1.44-1.63,2.15-.27.34-.56.67-.85,1.01.58.09,1.16.17,1.74.26-4.09.71-7.79,1.54-11.17,2.46.15-.89.47-1.8,1.17-2.75.7-.96.58-1.66-.15-2,1.75-.44,3.6-.86,5.51-1.25.3-.06.59-.12.89-.18Zm12.9,1.81c.44.11,1.13.38,1.29.29.72-.4,1.43-.86,1.84-1.37.18-.22-.38-.61-.8-1.19-.92.89-1.63,1.58-2.34,2.27Zm107.05,66.94c-1.71.26-3.35.47-4.95.66-.09.01-.18.02-.27.03-1.53.18-3.02.32-4.46.44,1.27,1.12,3.67,1.76,4.28,3.16.11.24.02.53-.11.83,1.99-.22,4.02-.47,6.16-.79,1.2-.18,2.03-1.31,1.85-2.48-.18-1.2-1.31-2.03-2.51-1.85Zm-2.54-29.53c-.19-.24-.43-.45-.71-.6-.48.04-.91.04-1.14-.09-.11-.06-.22-.11-.33-.17-2.14.32-4.17.57-6.14.78-.39.04-.79.09-1.18.12-1.95.19-3.84.34-5.63.43-1.94.09-3.67.13-5.34.12-.21,0-.42,0-.63,0-1.72-.01-3.38-.07-4.97-.17.98.77,2.22,1.49,2.44,2.39.15.62-.3,1.33-.72,2.05,3.23.14,6.69.12,10.43-.09.19-.01.38-.03.57-.04,1.53-.09,3.12-.23,4.75-.39.45-.05.9-.09,1.36-.14,1.88-.21,3.8-.45,5.82-.75,1.2-.18,2.03-1.31,1.85-2.51-.05-.34-.19-.64-.38-.89l-.05-.05Zm-51.42-4.75c-.04.7-.08,1.4-.04,2.09.03.62.58,1.18.9,1.77,1.13-.42,2.49-.72,3.32-1.29.42-.3.69-.67.94-1.05-1.72-.49-3.41-1-5.11-1.52Zm61.09,66.54c.18,1.2-.65,2.33-1.85,2.51-1.47.22-2.89.41-4.29.58-.49.06-3.18.35-4.02.43-.6.05-3.09.24-3.73.28-.66.04-1.32.08-1.96.11-.45.02-.89.03-1.33.04-3.94.12-7.57.04-10.95-.23.94-1.11,1.87-2.22,2.81-3.33-.73-.04-1.47-.09-3.37-.2-.41,1.12-.91,2.17-1.09,3.19-.01.08.03.15.11.21-1.68-.16-3.29-.37-4.86-.61-.24-.04-.49-.07-.73-.11-1.52-.24-2.99-.51-4.42-.81-.16-.03-.32-.07-.48-.1-3.05-.65-5.93-1.41-8.72-2.22.15-.14.26-.26.22-.29-.97-.64-2.16-1.16-3.29-1.71-.23.23-.51.5-.85.83-.75-.23-1.49-.46-2.23-.69-13.33-4.09-25.96-7.97-49.53-4.66-.32-.47-.97-1.38-1.83-2.22-.34-.33-1.77-.31-2.69-.44-.95,1.29-2.88,2.79-2.75,3.86-1.92.37-3.73.77-5.48,1.19-.41.1-.81.2-1.21.3-1.32.33-2.61.68-3.84,1.04-.44.13-.89.26-1.32.39-1.2.37-2.37.75-3.49,1.14-.34.12-.7.23-1.03.36-1.44.52-2.82,1.06-4.14,1.61-.74-1.21-1.53-2.55-2.77-3.57.96-.42,1.94-.82,2.96-1.22,3.11-1.22,6.42-2.33,10.06-3.34-.09.34-.14.58-.14.81-.01,1.57,2.34,1.13,4.25.76,1.07-.21,2-.82,2.99-1.25-1.39-.3-4.61-.98-4.61-.98,1.63-.41,3.33-.8,5.1-1.16,1.82-.37,3.65-.71,5.57-1.03,1.02.23,2.25.5,3.9.87.19-.41.55-.99.69-1.55,12.33-1.66,21.9-1.37,30.05-.16.13.02.26.04.4.06,2.66.41,5.17.91,7.57,1.48-.2.35-.46.72-.34,1,.18.42.87.72,1.33,1.07.64-.34,2.32-1.23,2.32-1.23,1.84.49,3.64,1.01,5.4,1.53,1.06.86,2.2,1.69,3.31,2.52.17-.34.35-.69.66-1.31,1.08.33,3.67,1.12,3.88,1.19,2.35.71,4.71,1.38,7.15,2,6.37,1.6,13.22,2.72,21.68,2.73.22.83.45,1.66.89,2.43.26.46,1.42.65,2.17.96.41-.67.82-1.35,1.39-2.3-.55-.39-1.09-.75-1.63-1.13,1.16-.03,2.36-.08,3.58-.15,1.28-.08,2.49-.17,3.74-.28.31-.03,2.95-.3,4-.43,1.39-.17,2.83-.36,4.31-.59,1.2-.18,2.33.65,2.5,1.82Zm-87.12-11.03c-.59-.29-1.06-.62-1.68-.76-.19-.04-.82.46-1.24.72.66.37,1.32.74,1.98,1.11.26-.29.52-.58.95-1.07Zm-56.34,12.76c-.53.12-1.01.18-1.47.2-3.77,2.21-7.21,4.51-10.55,6.8-.3.17-.59.38-.88.59-.81.56-7.82,5.22-7.9,5.27-4.41,2.79-9.16,5.42-14.89,7.73.54.82-.32,1.53-1.58,2.53-.99.79-1.22,1.9-1.8,2.87-.1-1.01-.15-2.02-.32-3.01-.05-.31-.13-.61-.21-.92-2.83.99-5.9,1.9-9.27,2.73-.24.06-.49.11-.73.17-1.35.32-2.75.63-4.2.92-.42.09-.84.17-1.28.25-1.75.33-3.54.65-5.45.94-1.3.2-2.56.37-3.78.52-1.16.15-3.4.38-3.4.38-.91.5-2.5.83-3.79,1.21-.18.05-.59-.19-1.27-.43.17-.13.35-.27.52-.41-2.15.13-4.2.2-6.16.21-6.03.01-11.14-.5-15.81-1.34-3.2-.58-6.07-1.27-8.86-2.03-.11-.03-12.11-3.61-12.24-3.65-3.36-1.01-6.81-1.98-10.5-2.8-.43.19-.84.39-1.3.56-.71.26-2.13-.09-3.22-.16.24-.38.72-1.16.72-1.16-.81-.15-2.66-.44-2.75-.45-.83-.12-1.67-.24-2.52-.34-5.69-.67-11.88-.88-19.1-.37,0,.32-1.44,1.12-2.35,1.44-.54.19-1.99-.05-2.03-.27-.04-.26-.06-.52-.1-.77-.93.1-1.87.21-2.83.33-1.2.15-2.4.31-3.64.5-1.17.18-2,1.31-1.82,2.47.18,1.2,1.31,2.03,2.48,1.85,24.69-3.75,37.61.23,51.26,4.42,13.52,4.18,27.49,8.52,53.16,4.62,1.62-.25,3.19-.51,4.71-.79.43-.08.83-.17,1.26-.25,1.07-.21,2.14-.42,3.16-.64.44-.1,3.22-.75,4.16-.99.38-.1,3.02-.82,3.92-1.09.3-.09,2.78-.87,3.69-1.18.23-.08.45-.16.67-.23.96-.34,1.91-.68,2.82-1.03.15-.06.29-.11.44-.17.98-.38,1.93-.77,2.86-1.17.07-.03.14-.06.22-.09,1-.43,1.97-.87,2.91-1.32-.39-.18-.77-.37-1.19-.55-1.92-.82-1.93-1.49.76-2.1,1.26-.29,2.65-.49,3.7-.98.8-.38,1.15-1.15,1.97-2.04.3.24.73.4.75.61.04.62.26,1.14.6,1.61,1.36-.79,2.68-1.59,3.95-2.4-.51-.41-.91-.84-.66-1.37.12-.27,1.09-.69,1.54-.67.71.02,1.41.08,2.12.1,1.43-.95,4.78-3.24,5.07-3.44,4.83-3.32,9.57-6.53,15.2-9.48.83-.43,1.69-.85,2.55-1.27-2.01-.94-4.37-1.13-7.31-.44Zm-10.8-88.65c1.04-.57,2.17-1.12,3.27-1.67-.35-.18-.73-.36-1.01-.54-.64.41-1.57.78-1.86,1.24-.2.31-.31.65-.4.98Zm37.19,47.57c.67-.27,2.11,0,2.96.26,2.58.77,2.67.79,5.16-.82.61-.4,1.37-.74,1.82-1.18.45-.44.73-.69.98-.87-1.74.2-3.53.43-5.39.71-1.7.26-3.33.54-4.91.83-.08.01-.15.03-.23.05-1.51.29-2.98.59-4.4.91.58.84,1.61,1.1,4.01.12Zm13.07-.39c-.57.84-1.04,1.46-1.38,2.06.76-.09,1.51-.17,2.25-.24.19-.27.39-.54.55-.82.1-.17-.59-.44-1.41-1Zm84.22,10.12c-.82-.4-2.6-.09-3.95-.11.35.74.34,1.71,1.13,2.18.79.46,1.89.74,2.99,1,1.24-.07,2.51-.15,3.82-.26-1.4-.89-2.41-2.05-3.98-2.81Zm-84.38-11.78c.45.31,1.29.8,1.61.69.7-.22,1.61-.8,1.67-1.19.03-.19.06-.38.08-.57-1.44.1-2.92.24-4.45.4.27.12.59.32,1.08.66Zm-52.71-47.47c1.64-.85,2.06-1.63,2.04-2.62-4.08,2.14-7.71,4.41-11.15,6.71-.87,1.87.21,2.35,3.68,2.78,1.62-1.07,3.28-2.11,4.99-3.13-1.89-1.08-2.05-2.45.45-3.75Zm91.92,54.35c-.46-.12-1.21-.1-1.87-.13.1.03,1.35.39,1.86.54,0-.13,0-.27,0-.4Zm-72.4-63.99c-.67.64-1.04.96-.94,1.12.24.39,1.09.59,1.68.87.55-.5,1.38-1,1.54-1.52.09-.27-.25-.55-.67-.94-.55.15-1.07.31-1.61.46Zm67.61,29.87c.83.6,1.11,1.57,1.29,2.43.26,1.23-.39,1.82-2.48,1.1-.22-.07-.49-.07-.8-.05,0,0,2.74.79,4.09,1.2,2.03-.62,3.63-1.87,4.08-3.33-2.56-.79-5.15-1.58-7.83-2.31.58.31,1.17.61,1.65.97Z"/></svg>